<svg width="64" height="64" viewBox="0 0 64 64" fill="none" xmlns="http://www.w3.org/2000/svg">

<rect x="7" y="7" width="50" height="50" rx="50" fill="#0671E0"/>
<path d="M26.8035 20.2301C26.9294 20.2296 27.0552 20.2291 27.1849 20.2285C27.5294 20.2275 27.8737 20.2282 28.2182 20.2299C28.5791 20.2313 28.9399 20.2306 29.3007 20.2303C29.9067 20.23 30.5125 20.2313 31.1185 20.2337C31.8185 20.2364 32.5185 20.2365 33.2186 20.2353C33.8926 20.2343 34.5666 20.2349 35.2407 20.2363C35.5273 20.2369 35.8138 20.2369 36.1004 20.2364C36.5007 20.2358 36.901 20.2378 37.3013 20.24C37.4795 20.2393 37.4795 20.2393 37.6612 20.2386C37.7704 20.2396 37.8795 20.2406 37.992 20.2416C38.0866 20.2419 38.1812 20.2421 38.2787 20.2424C38.5977 20.2887 38.7849 20.3944 39.0449 20.5825C39.2495 20.867 39.2495 20.867 39.447 21.2113C39.4828 21.273 39.5186 21.3347 39.5555 21.3983C39.6695 21.5952 39.7816 21.7931 39.8938 21.991C39.9687 22.1209 40.0437 22.2507 40.1188 22.3805C40.2999 22.6942 40.4783 23.0093 40.6559 23.325C40.7501 23.491 40.8468 23.6556 40.9436 23.8201C40.9989 23.9158 41.0541 24.0115 41.111 24.1102C41.1834 24.2333 41.1834 24.2333 41.2572 24.3589C41.3821 24.6632 41.3895 24.8843 41.359 25.2106C41.0413 25.7719 41.0413 25.7719 40.7553 25.9149C40.527 25.9255 40.2984 25.9294 40.0699 25.9304C39.9629 25.931 39.9629 25.931 39.8538 25.9317C39.6137 25.933 39.3736 25.9337 39.1334 25.9343C38.9617 25.9351 38.7901 25.9359 38.6184 25.9368C38.0535 25.9394 37.4887 25.9409 36.9238 25.9424C36.7296 25.9429 36.5353 25.9435 36.341 25.944C35.5331 25.9462 34.7251 25.9481 33.9172 25.9492C32.7584 25.9508 31.5996 25.9542 30.4407 25.9599C29.6264 25.9638 28.8122 25.9658 27.9978 25.9663C27.5112 25.9667 27.0247 25.9679 26.538 25.9711C26.0803 25.9742 25.6226 25.9748 25.1648 25.9736C24.9968 25.9736 24.8287 25.9744 24.6607 25.9762C24.4313 25.9785 24.2021 25.9776 23.9726 25.976C23.8443 25.9764 23.7159 25.9767 23.5836 25.9771C23.1607 25.8985 23.014 25.7402 22.7458 25.4118C22.6004 25.1209 22.6141 24.9316 22.6452 24.6069C22.7736 24.3396 22.9038 24.1021 23.0602 23.8523C23.1262 23.744 23.1262 23.744 23.1935 23.6335C23.3447 23.3869 23.498 23.1418 23.6513 22.8965C23.7723 22.6999 23.8932 22.5032 24.0141 22.3066C24.1382 22.107 24.2626 21.9075 24.3871 21.708C24.446 21.6126 24.505 21.5171 24.5657 21.4188C24.6226 21.3289 24.6794 21.239 24.738 21.1464C24.788 21.0667 24.838 20.987 24.8895 20.9048C25.439 20.1899 25.9515 20.2232 26.8035 20.2301Z" fill="white"/>
<path d="M21.1666 28.9926C21.2628 28.9919 21.3589 28.9912 21.458 28.9905C21.7804 28.9886 22.1027 28.9896 22.4251 28.9907C22.6561 28.99 22.8872 28.9891 23.1182 28.9881C23.746 28.9858 24.3738 28.9861 25.0016 28.987C25.5254 28.9875 26.0492 28.9868 26.573 28.986C27.8793 28.9842 29.1856 28.9849 30.4919 28.9866C31.6261 28.9881 32.7603 28.9867 33.8946 28.9838C35.0595 28.9808 36.2244 28.9797 37.3893 28.9807C38.0432 28.9811 38.6971 28.9809 39.351 28.9789C39.9658 28.977 40.5806 28.9776 41.1954 28.9801C41.4212 28.9806 41.6469 28.9802 41.8727 28.979C42.1807 28.9774 42.4885 28.9789 42.7965 28.9811C42.886 28.98 42.9755 28.9788 43.0677 28.9775C43.4953 28.984 43.7727 29.0112 44.1109 29.2861C44.4654 29.6533 44.7018 30.0436 44.9543 30.4844C45.0043 30.5665 45.0544 30.6487 45.106 30.7333C45.4202 31.2749 45.5682 31.6379 45.4699 32.2639C45.3425 32.5606 45.1786 32.8205 44.9983 33.0877C44.9545 33.1566 44.9108 33.2255 44.8657 33.2966C44.5706 33.7508 44.2558 34.2292 43.7595 34.4774C43.5314 34.4869 43.3029 34.4896 43.0745 34.4895C42.9677 34.4896 42.9677 34.4896 42.8586 34.4897C42.6187 34.4899 42.3788 34.4894 42.1389 34.4888C41.9674 34.4888 41.7959 34.4888 41.6243 34.4888C41.1577 34.4889 40.691 34.4883 40.2244 34.4876C39.7371 34.487 39.2498 34.4869 38.7625 34.4868C37.8392 34.4865 36.916 34.4856 35.9928 34.4846C34.9419 34.4835 33.891 34.483 32.8402 34.4824C30.678 34.4814 28.5159 34.4796 26.3537 34.4774C26.4014 34.5631 26.4491 34.6489 26.4983 34.7372C26.676 35.0568 26.8532 35.3765 27.0304 35.6963C27.107 35.8345 27.1837 35.9726 27.2605 36.1106C27.3712 36.3095 27.4815 36.5086 27.5917 36.7077C27.6259 36.769 27.66 36.8302 27.6953 36.8933C27.8762 37.2211 28.0344 37.547 28.1647 37.8982C28.2274 37.8979 28.2901 37.8976 28.3547 37.8973C29.8814 37.8907 31.408 37.8857 32.9347 37.8825C33.673 37.881 34.4112 37.8789 35.1495 37.8754C35.7931 37.8724 36.4367 37.8705 37.0803 37.8698C37.4209 37.8694 37.7616 37.8685 38.1023 37.8663C38.4829 37.8641 38.8634 37.8638 39.244 37.8639C39.3566 37.8628 39.4692 37.8617 39.5853 37.8606C40.2449 37.8633 40.7283 37.9063 41.2317 38.3761C41.3909 38.6945 41.4044 38.962 41.3448 39.3067C41.1971 39.6701 41.0058 40.0047 40.8103 40.3443C40.7291 40.4888 40.7291 40.4888 40.6463 40.6362C40.4788 40.9321 40.3087 41.2264 40.1375 41.5202C40.0849 41.6108 40.0324 41.7014 39.9782 41.7948C39.8316 42.0459 39.6833 42.2958 39.5338 42.5452C39.4892 42.6204 39.4445 42.6956 39.3985 42.7731C39.1054 43.2518 38.8754 43.5507 38.3265 43.7337C38.1583 43.7433 37.9898 43.7472 37.8213 43.7478C37.7169 43.7484 37.6126 43.7489 37.505 43.7495C37.3906 43.7496 37.2761 43.7498 37.1582 43.7499C37.0376 43.7504 36.917 43.7509 36.7927 43.7514C36.4618 43.7526 36.1308 43.7534 35.7998 43.7538C35.5929 43.7541 35.386 43.7545 35.1791 43.755C34.5313 43.7563 33.8835 43.7573 33.2357 43.7577C32.4887 43.7581 31.7417 43.7599 30.9947 43.7628C30.4168 43.765 29.8389 43.766 29.261 43.7662C28.9161 43.7663 28.5713 43.7668 28.2264 43.7686C27.8412 43.7704 27.4562 43.7702 27.071 43.7695C26.9574 43.7704 26.8437 43.7714 26.7266 43.7723C26.1227 43.7691 25.6748 43.7351 25.1464 43.4318C24.9651 43.2092 24.8328 43.0178 24.6936 42.7716C24.6523 42.7022 24.611 42.6329 24.5685 42.5615C24.4235 42.3163 24.2818 42.0693 24.1402 41.822C24.0246 41.6221 23.9089 41.4222 23.7932 41.2223C23.6026 40.8924 23.4123 40.5623 23.2228 40.2317C22.7829 39.465 22.3335 38.705 21.8765 37.9485C21.224 36.8677 20.5908 35.7765 19.9621 34.6817C19.6112 34.071 19.2552 33.4633 18.8963 32.8572C18.6132 32.3786 18.4679 32.1234 18.506 31.5596C18.6088 31.3035 18.6088 31.3035 18.7524 31.0527C18.8046 30.9611 18.8568 30.8695 18.9106 30.7752C18.9659 30.6813 19.0212 30.5874 19.0782 30.4906C19.1316 30.396 19.185 30.3013 19.2399 30.2037C19.7602 29.305 20.1215 28.9829 21.1666 28.9926Z" fill="white"/>
</svg>
